<svg width="25" height="25" viewBox="0 0 25 25" fill="none" xmlns="http://www.w3.org/2000/svg">
<path d="M5.12471 3.5H23.5L21 12.25H6.47089M22.25 17.25H7.25L4.75 1H1M8.5 22.25C8.5 22.9404 7.94035 23.5 7.25 23.5C6.55965 23.5 6 22.9404 6 22.25C6 21.5596 6.55965 21 7.25 21C7.94035 21 8.5 21.5596 8.5 22.25ZM22.25 22.25C22.25 22.9404 21.6904 23.5 21 23.5C20.3096 23.5 19.75 22.9404 19.75 22.25C19.75 21.5596 20.3096 21 21 21C21.6904 21 22.25 21.5596 22.25 22.25Z" stroke="#58B7A3" stroke-width="2" stroke-linecap="round" stroke-linejoin="round"/>
</svg>
