<svg width="28" height="28" viewBox="0 0 28 28" fill="none" xmlns="http://www.w3.org/2000/svg">
<path d="M25.0999 6.6084L13.1749 18.5333C11.9874 19.7208 8.46234 20.2708 7.67484 19.4833C6.88734 18.6958 7.42484 15.1708 8.61234 13.9833L20.5499 2.04586C20.8443 1.72469 21.2006 1.46651 21.5976 1.28689C21.9945 1.10726 22.4238 1.00989 22.8594 1.00071C23.2949 0.991551 23.7279 1.07073 24.132 1.23349C24.5361 1.39625 24.9031 1.63925 25.2108 1.94775C25.5184 2.25625 25.7604 2.62388 25.922 3.02845C26.0836 3.43304 26.1618 3.86616 26.1514 4.30173C26.141 4.73729 26.0424 5.16628 25.8618 5.56271C25.681 5.95915 25.4219 6.31489 25.0999 6.6084Z" stroke="black" stroke-width="2" stroke-linecap="round" stroke-linejoin="round"/>
<path d="M12.25 3.60834H6C4.67391 3.60834 3.40222 4.13511 2.46454 5.0728C1.52686 6.01049 1 7.28225 1 8.60834V21.1083C1 22.4345 1.52686 23.7062 2.46454 24.6438C3.40222 25.5816 4.67391 26.1083 6 26.1083H19.75C22.5125 26.1083 23.5 23.8583 23.5 21.1083V14.8583" stroke="black" stroke-width="2" stroke-linecap="round" stroke-linejoin="round"/>
</svg>
