<svg width="34" height="28" viewBox="0 0 34 28" fill="none" xmlns="http://www.w3.org/2000/svg">
<path d="M23 7C23 10.3137 20.3138 13 17 13C13.6862 13 11 10.3137 11 7C11 3.6863 13.6862 1 17 1C20.3138 1 23 3.6863 23 7Z" stroke="white" stroke-width="2" stroke-linecap="round" stroke-linejoin="round"/>
<path d="M13 21C13 24.3138 10.3137 27 7 27C3.6863 27 1 24.3138 1 21C1 17.6862 3.6863 15 7 15C10.3137 15 13 17.6862 13 21Z" stroke="white" stroke-width="2" stroke-linecap="round" stroke-linejoin="round"/>
<path d="M33 21C33 24.3138 30.3138 27 27 27C23.6862 27 21 24.3138 21 21C21 17.6862 23.6862 15 27 15C30.3138 15 33 17.6862 33 21Z" stroke="white" stroke-width="2" stroke-linecap="round" stroke-linejoin="round"/>
</svg>
