<svg width="30" height="30" viewBox="0 0 30 30" fill="none" xmlns="http://www.w3.org/2000/svg">
<path d="M12.5379 11.2121C12.1718 10.846 11.5782 10.846 11.2121 11.2121C10.846 11.5782 10.846 12.1718 11.2121 12.5379L13.6742 15L11.2121 17.4621C10.846 17.8282 10.846 18.4217 11.2121 18.7879C11.5782 19.154 12.1718 19.154 12.5379 18.7879L15 16.3259L17.462 18.7879C17.8282 19.154 18.4218 19.154 18.7879 18.7879C19.154 18.4217 19.154 17.8281 18.7879 17.4621L16.3258 15L18.7879 12.5379C19.154 12.1718 19.154 11.5782 18.7879 11.2121C18.4218 10.846 17.8282 10.846 17.462 11.2121L15 13.6742L12.5379 11.2121Z" fill="white"/>
<path fill-rule="evenodd" clip-rule="evenodd" d="M15.0718 1.5625H14.9283C12.0428 1.56249 9.78149 1.56248 8.01714 1.79969C6.21121 2.04249 4.78619 2.54916 3.66768 3.66768C2.54916 4.78619 2.04249 6.21121 1.79969 8.01714C1.56248 9.78149 1.56249 12.0428 1.5625 14.9283V15.0718C1.56249 17.9573 1.56248 20.2185 1.79969 21.9829C2.04249 23.7888 2.54916 25.2139 3.66768 26.3324C4.78619 27.4509 6.21121 27.9575 8.01714 28.2004C9.78149 28.4375 12.0428 28.4375 14.9283 28.4375H15.0718C17.9573 28.4375 20.2185 28.4375 21.9829 28.2004C23.7888 27.9575 25.2139 27.4509 26.3324 26.3324C27.4509 25.2139 27.9575 23.7888 28.2004 21.9829C28.4375 20.2185 28.4375 17.9573 28.4375 15.0718V14.9283C28.4375 12.0428 28.4375 9.78149 28.2004 8.01714C27.9575 6.21121 27.4509 4.78619 26.3324 3.66768C25.2139 2.54916 23.7888 2.04249 21.9829 1.79969C20.2185 1.56248 17.9573 1.56249 15.0718 1.5625ZM4.9935 4.9935C5.70556 4.28143 6.66896 3.87281 8.26698 3.65796C9.89195 3.43949 12.0272 3.4375 15 3.4375C17.9728 3.4375 20.108 3.43949 21.733 3.65796C23.331 3.87281 24.2944 4.28143 25.0065 4.9935C25.7186 5.70556 26.1273 6.66896 26.342 8.26698C26.5605 9.89195 26.5625 12.0272 26.5625 15C26.5625 17.9728 26.5605 20.108 26.342 21.733C26.1273 23.331 25.7186 24.2944 25.0065 25.0065C24.2944 25.7186 23.331 26.1273 21.733 26.342C20.108 26.5605 17.9728 26.5625 15 26.5625C12.0272 26.5625 9.89195 26.5605 8.26698 26.342C6.66896 26.1273 5.70556 25.7186 4.9935 25.0065C4.28143 24.2944 3.87281 23.331 3.65796 21.733C3.43949 20.108 3.4375 17.9728 3.4375 15C3.4375 12.0272 3.43949 9.89195 3.65796 8.26698C3.87281 6.66896 4.28143 5.70556 4.9935 4.9935Z" fill="white"/>
</svg>
