<svg width="30" height="30" viewBox="0 0 30 30" fill="none"
    xmlns="http://www.w3.org/2000/svg">
    <g clip-path="url(#clip0_189_32)">
        <path fill-rule="evenodd" clip-rule="evenodd" d="M13.0303 16.5113C13.482 19.1559 14.0309 21.9181 14.3344 22.4863C14.765 23.2913 15.7726 23.6034 16.5844 23.1755C17.3944 22.7476 17.705 21.7427 17.2744 20.9378C16.9709 20.3695 14.9785 18.3685 13.0303 16.5113ZM12.3456 13.4615C13.3073 14.3454 18.1409 18.8157 18.8344 20.117C19.7203 21.776 19.0815 23.8419 17.4103 24.7241C16.9003 24.9924 16.3515 25.1187 15.8115 25.1187C14.5815 25.1187 13.3903 24.461 12.7744 23.3088C12.0809 22.0075 11.0697 15.5239 10.8738 14.2367C10.8191 13.8684 11.0026 13.5036 11.3326 13.3318C11.6662 13.1564 12.0685 13.2072 12.3456 13.4615ZM15.0007 4.37873C23.2719 4.37873 30.0007 11.0675 30.0007 19.2856C30.0007 20.4834 29.8613 21.6636 29.5843 22.793L29.4219 23.463H21.2284V21.7092H28.0137C28.1619 20.9218 28.236 20.1081 28.236 19.2856C28.236 12.0321 22.2978 6.13245 15.0007 6.13245C7.70192 6.13245 1.76545 12.0321 1.76545 19.2856C1.76545 20.1081 1.83958 20.9218 1.98604 21.7092H9.60251V23.463H0.577811L0.415467 22.793C0.140139 21.6636 0.000732422 20.4834 0.000732422 19.2856C0.000732422 11.0675 6.72958 4.37873 15.0007 4.37873ZM23.478 10.4453L24.7257 11.6852L22.9645 13.4354L21.7169 12.1955L23.478 10.4453ZM6.52204 10.4453L8.28322 12.1955L7.03556 13.4354L5.27442 11.6852L6.52206 10.4452L6.52204 10.4453ZM15.8824 7.31853V9.79481H14.1177V7.31851L15.8824 7.31853Z" fill="white"/>
    </g>
    <defs>
        <clipPath id="clip0_189_32">
            <rect width="30" height="29.8137" fill="white"/>
        </clipPath>
    </defs>
</svg>
