<svg width="30" height="30" viewBox="0 0 30 30" fill="none"
    xmlns="http://www.w3.org/2000/svg">
    <path d="M17.6272 1.56703L17.6269 1.56728L17.6366 1.57656L23.8789 7.56502L23.8788 7.56514L23.8855 7.57115C23.9381 7.61805 23.9802 7.67554 24.009 7.73983C24.0378 7.80412 24.0526 7.87377 24.0526 7.94423C24.0526 8.01468 24.0378 8.08433 24.009 8.14862C23.9802 8.21292 23.9381 8.2704 23.8855 8.3173L23.8854 8.31716L23.8783 8.324L17.6649 14.324L17.6646 14.3238L17.656 14.333C17.6055 14.3869 17.5444 14.43 17.4765 14.4594C17.4087 14.4888 17.3355 14.504 17.2616 14.504C17.1876 14.504 17.1145 14.4888 17.0466 14.4594C16.9788 14.43 16.9177 14.3869 16.8671 14.333L16.8674 14.3328L16.8587 14.3244L15.7049 13.2052L15.6996 13.2L15.6939 13.1952C15.6407 13.1493 15.5979 13.0925 15.5686 13.0286C15.5393 12.9647 15.5242 12.8953 15.5242 12.825C15.5242 12.7547 15.5393 12.6853 15.5686 12.6214C15.5979 12.5575 15.6407 12.5007 15.6939 12.4548L15.6994 12.4501L15.7046 12.4451L17.6489 10.5643L17.6605 10.5531L17.6705 10.5405C17.7588 10.4297 17.8148 10.2968 17.8324 10.1563C17.8499 10.0157 17.8283 9.8731 17.77 9.74406C17.7117 9.61502 17.6188 9.50458 17.5018 9.42492C17.3847 9.34527 17.2479 9.29948 17.1064 9.2926L17.1064 9.2923H17.0943H6.56597C6.41445 9.29138 6.26892 9.23298 6.15878 9.12888C6.05018 9.02623 5.984 8.8867 5.97313 8.73782V7.1555C5.99019 7.00776 6.05878 6.87062 6.16703 6.7683C6.27685 6.6645 6.42016 6.60346 6.57099 6.59615H17.088C17.2466 6.6034 17.4035 6.56104 17.537 6.47487C17.6726 6.38732 17.777 6.25904 17.8351 6.10846C17.8932 5.95788 17.9021 5.79274 17.8606 5.63678C17.82 5.4847 17.7335 5.34896 17.6129 5.24806L15.6758 3.37416L15.6706 3.36912L15.6651 3.36439C15.6118 3.31853 15.5691 3.26172 15.5398 3.19784C15.5105 3.13396 15.4953 3.06451 15.4953 2.99423C15.4953 2.92394 15.5105 2.85449 15.5398 2.79061C15.5691 2.72673 15.6118 2.66992 15.6651 2.62406L15.6651 2.62411L15.6692 2.62043L16.8231 1.58197L16.831 1.57483L16.8383 1.56703C16.8888 1.51305 16.9499 1.47002 17.0178 1.44061C17.0856 1.41119 17.1588 1.39601 17.2327 1.39601C17.3067 1.39601 17.3799 1.41119 17.4477 1.44061C17.5155 1.47002 17.5766 1.51305 17.6272 1.56703ZM12.3584 15.6644L12.3586 15.6645L12.3658 15.6569C12.4168 15.6032 12.4782 15.5605 12.5463 15.5313C12.6143 15.5022 12.6876 15.4871 12.7616 15.4871C12.8356 15.4871 12.9089 15.5022 12.9769 15.5313C13.0449 15.5605 13.1063 15.6032 13.1574 15.6569L13.164 15.6639L13.1713 15.6704L14.3251 16.7089L14.3259 16.7096C14.3785 16.7565 14.4205 16.814 14.4493 16.8783C14.4781 16.9426 14.493 17.0122 14.493 17.0827C14.493 17.1531 14.4781 17.2228 14.4493 17.2871C14.4205 17.3514 14.3785 17.4089 14.3259 17.4558L14.3258 17.4556L14.3185 17.4626L12.377 19.3408C12.2615 19.4465 12.1815 19.5855 12.1482 19.7386C12.1146 19.8932 12.1302 20.0545 12.1929 20.1998C12.2556 20.3451 12.3622 20.4671 12.4977 20.5488C12.6302 20.6285 12.7837 20.6658 12.9379 20.6558H23.4234C23.5752 20.6629 23.7194 20.724 23.8302 20.828C23.9393 20.9304 24.0088 21.0677 24.027 21.2159V22.7967C24.015 22.9469 23.9478 23.0874 23.8381 23.1911C23.727 23.2962 23.5803 23.3557 23.4274 23.3577H12.9099C12.7582 23.3532 12.6086 23.3941 12.4802 23.475C12.3504 23.5569 12.2482 23.676 12.1871 23.8167C12.126 23.9575 12.1087 24.1134 12.1375 24.2642C12.1663 24.4149 12.2399 24.5534 12.3486 24.6617L12.3512 24.6643L14.2955 26.5451L14.2953 26.5452L14.3028 26.5519C14.3554 26.5988 14.3975 26.6563 14.4263 26.7206C14.4551 26.7849 14.4699 26.8545 14.4699 26.925C14.4699 26.9954 14.4551 27.0651 14.4263 27.1294C14.3975 27.1937 14.3554 27.2512 14.3028 27.2981L14.3027 27.2979L14.2952 27.3052L13.1414 28.4244L13.1412 28.4242L13.1343 28.4316C13.0833 28.4852 13.0219 28.5279 12.9538 28.5571C12.8858 28.5863 12.8125 28.6013 12.7385 28.6013C12.6645 28.6013 12.5912 28.5863 12.5232 28.5571C12.4552 28.5279 12.3938 28.4852 12.3427 28.4316L12.3429 28.4314L12.3357 28.4244L6.15105 22.4244L6.14572 22.4192L6.14009 22.4144C6.08683 22.3685 6.0441 22.3117 6.0148 22.2478C5.9855 22.184 5.97034 22.1145 5.97034 22.0442C5.97034 21.9739 5.9855 21.9045 6.0148 21.8406C6.0441 21.7767 6.08683 21.7199 6.14009 21.6741L6.14554 21.6694L6.15072 21.6644L12.3584 15.6644Z" fill="white" stroke="white" stroke-width="1px"  shape-rendering="optimizeQuality"  />
</svg>
