<svg width="30" height="30" viewBox="0 0 30 30" fill="none" xmlns="http://www.w3.org/2000/svg">
<path d="M15.8404 20.5319V21.864C15.8404 21.9696 15.8195 22.074 15.7791 22.1716C15.7388 22.2691 15.6795 22.3579 15.6048 22.4326C15.5302 22.5073 15.4415 22.5662 15.3441 22.6067C15.2465 22.647 15.1419 22.6679 15.0363 22.6679C14.9308 22.6679 14.8261 22.647 14.7286 22.6067C14.631 22.5662 14.5425 22.5073 14.4678 22.4326C14.3932 22.3579 14.3339 22.2691 14.2936 22.1716C14.2531 22.074 14.2323 21.9696 14.2323 21.864V20.4961C13.6998 20.4086 13.1901 20.2162 12.7328 19.9298C12.2753 19.6434 11.8795 19.2688 11.5683 18.8279C11.455 18.684 11.3918 18.5071 11.3883 18.324C11.3898 18.221 11.412 18.1194 11.4535 18.0252C11.4951 17.931 11.5552 17.8462 11.6302 17.7756C11.7052 17.705 11.7936 17.6504 11.8901 17.6148C11.9867 17.579 12.0895 17.5631 12.1923 17.5679C12.2941 17.5681 12.3946 17.5898 12.4876 17.6311C12.5806 17.6725 12.6639 17.7328 12.7323 17.8081C13.1191 18.3091 13.6389 18.6916 14.2323 18.912V15.852C12.6363 15.228 11.8323 14.2919 11.8323 13.0799C11.8564 12.431 12.1114 11.8121 12.5514 11.3347C12.9915 10.8572 13.5875 10.5528 14.2323 10.476V9.15586C14.2323 9.05029 14.2531 8.94579 14.2936 8.84826C14.3339 8.75071 14.3932 8.66217 14.4678 8.58751C14.5425 8.51284 14.631 8.4536 14.7286 8.4132C14.8261 8.37279 14.9308 8.35196 15.0363 8.35196C15.1419 8.35196 15.2465 8.37279 15.3441 8.4132C15.4415 8.4536 15.5302 8.51284 15.6048 8.58751C15.6795 8.66217 15.7388 8.75071 15.7791 8.84826C15.8195 8.94579 15.8404 9.05029 15.8404 9.15586V10.464C16.2869 10.5339 16.7147 10.6932 17.0982 10.9324C17.4817 11.1716 17.8131 11.4857 18.0723 11.8559C18.1866 11.9908 18.2541 12.1595 18.2643 12.336C18.2675 12.4394 18.2501 12.5423 18.2131 12.639C18.1761 12.7356 18.1203 12.824 18.0487 12.8988C17.9772 12.9737 17.8915 13.0336 17.7967 13.075C17.7019 13.1164 17.5998 13.1384 17.4963 13.14C17.388 13.137 17.2816 13.1108 17.1843 13.0632C17.0869 13.0156 17.001 12.9476 16.9323 12.864C16.6462 12.5065 16.269 12.233 15.8404 12.0721V14.7721L16.1404 14.8919C17.6644 15.4919 18.6124 16.356 18.6124 17.724C18.5945 18.457 18.2977 19.1555 17.7827 19.6772C17.2677 20.199 16.573 20.5045 15.8404 20.5319ZM14.2323 14.076V12.1199C14.0386 12.1901 13.8719 12.3194 13.7556 12.4896C13.6395 12.6596 13.5795 12.862 13.5844 13.0679C13.5808 13.2811 13.6403 13.4909 13.7556 13.6702C13.871 13.8496 14.0368 13.9907 14.2323 14.076ZM16.8603 17.76C16.8603 17.184 16.4644 16.836 15.8404 16.56V18.96C16.1265 18.9167 16.3873 18.7712 16.5748 18.5508C16.7622 18.3302 16.8636 18.0494 16.8603 17.76Z" fill="white"/>
<path d="M22.2 4.76398H7.8C6.52696 4.76398 5.30606 5.26977 4.40588 6.16993C3.5057 7.07011 3 8.29093 3 9.56398V21.564C3 22.837 3.5057 24.0579 4.40588 24.958C5.30606 25.8582 6.52696 26.364 7.8 26.364H22.2C23.4731 26.364 24.694 25.8582 25.5941 24.958C26.4943 24.0579 27 22.837 27 21.564V9.56398C27 8.29093 26.4943 7.07011 25.5941 6.16993C24.694 5.26977 23.4731 4.76398 22.2 4.76398Z" stroke="white" stroke-width="2" stroke-linecap="round" stroke-linejoin="round"/>
</svg>
