<svg width="30" height="30" viewBox="0 0 30 30" fill="none" xmlns="http://www.w3.org/2000/svg">
<g clip-path="url(#clip0_189_61)">
<path d="M17.8125 1.62379L25.1779 5.87619C26.9183 6.881 27.9904 8.73796 27.9904 10.7476V19.2524C27.9904 21.262 26.9183 23.119 25.1779 24.1238L17.8125 28.3762C16.0721 29.381 13.9279 29.381 12.1875 28.3762L4.82214 24.1238C3.08176 23.119 2.00964 21.262 2.00964 19.2524V10.7476C2.00964 8.73796 3.08176 6.881 4.82214 5.87619L12.1875 1.62379C13.9279 0.618976 16.0721 0.618976 17.8125 1.62379ZM13.3208 3.14214L13.125 3.24758L5.75964 7.49999C4.66046 8.1346 3.96111 9.2791 3.89054 10.537L3.88464 10.7476V19.2524C3.88464 20.5216 4.52613 21.6995 5.58019 22.3896L5.75964 22.5L13.125 26.7524C14.2208 27.385 15.5568 27.4202 16.6792 26.8578L16.875 26.7524L24.2404 22.5C25.3396 21.8654 26.0389 20.7209 26.1095 19.463L26.1154 19.2524V10.7476C26.1154 9.47835 25.4739 8.30046 24.4199 7.61041L24.2404 7.49999L16.875 3.24758C15.7792 2.61493 14.4433 2.57978 13.3208 3.14214ZM21.5816 10.835C21.8246 11.2922 21.6511 11.8598 21.1939 12.1029L15.9267 14.9031L15.9268 21.249C15.9268 21.7667 15.507 22.1865 14.9893 22.1865C14.4715 22.1865 14.0518 21.7667 14.0518 21.249L14.0517 14.9031L8.7846 12.1029C8.32744 11.8598 8.15389 11.2922 8.39696 10.835C8.64004 10.3779 9.2077 10.2043 9.66486 10.4474L14.9892 13.2775L20.3137 10.4474C20.7708 10.2043 21.3385 10.3779 21.5816 10.835Z" fill="white"/>
</g>
<defs>
<clipPath id="clip0_189_61">
<rect width="30" height="30" fill="white"/>
</clipPath>
</defs>
</svg>
