<svg width="30" height="30" viewBox="0 0 30 30" fill="none" xmlns="http://www.w3.org/2000/svg">
<path d="M8.75 26.25V14.5C8.75 13.7999 8.75 13.4499 8.88624 13.1825C9.00609 12.9473 9.19731 12.756 9.43251 12.6363C9.6999 12.5 10.0499 12.5 10.75 12.5H19.25C19.9501 12.5 20.3001 12.5 20.5675 12.6363C20.8028 12.756 20.9939 12.9473 21.1138 13.1825C21.25 13.4499 21.25 13.7999 21.25 14.5V26.25M12.5 17.5H17.5M12.5 22.5H17.5M3.75 13.1101V24.25C3.75 24.95 3.75 25.3 3.88624 25.5675C4.00609 25.8026 4.19731 25.9939 4.43251 26.1138C4.6999 26.25 5.04994 26.25 5.75 26.25H24.25C24.9501 26.25 25.3001 26.25 25.5675 26.1138C25.8028 25.9939 25.9939 25.8026 26.1138 25.5675C26.25 25.3 26.25 24.95 26.25 24.25V13.1101C26.25 11.768 26.25 11.0968 26.046 10.504C25.8656 9.97964 25.5712 9.50185 25.184 9.10499C24.7462 8.65623 24.1467 8.35447 22.9479 7.75094L17.6979 5.10807C16.7089 4.61024 16.2145 4.36132 15.6955 4.26337C15.2359 4.17662 14.7641 4.17662 14.3045 4.26337C13.7855 4.36132 13.2911 4.61023 12.3021 5.10807L7.05214 7.75094C5.85325 8.35447 5.2538 8.65623 4.81594 9.10499C4.42873 9.50185 4.13433 9.97964 3.95396 10.504C3.75 11.0968 3.75 11.768 3.75 13.1101Z" stroke="white" stroke-width="2" stroke-linecap="round" stroke-linejoin="round"/>
</svg>
