<svg width="32" height="27" viewBox="0 0 32 27" fill="none" xmlns="http://www.w3.org/2000/svg">
<path d="M1 1H31" stroke="white" stroke-width="2" stroke-linecap="round"/>
<path d="M4.33325 1H27.6666V20.6667C27.6666 22.5335 27.6666 23.467 27.3032 24.18C26.9837 24.8072 26.4737 25.3172 25.8466 25.6367C25.1336 26 24.2001 26 22.3332 26H9.66658C7.79973 26 6.86632 26 6.15329 25.6367C5.52607 25.3172 5.01614 24.8072 4.69657 24.18C4.33325 23.467 4.33325 22.5335 4.33325 20.6667V1Z" stroke="white" stroke-width="2" stroke-linecap="round"/>
<path d="M16.0001 19.3338V9.33385" stroke="white" stroke-width="2" stroke-linecap="round"/>
<path d="M10.9999 14.3338L15.823 9.51057C15.9207 9.41294 16.079 9.41294 16.1767 9.51057L20.9999 14.3338" stroke="white" stroke-width="2" stroke-linecap="round"/>
</svg>
