<svg width="40" height="60" viewBox="0 0 40 60" fill="none"
    xmlns="http://www.w3.org/2000/svg">
    <path d="M37.6983 0H2.30192C1.44318 0 0.74707 0.696107 0.74707 1.55485V58.4452C0.74707 59.3039 1.44318 60 2.30192 60H37.6983C38.557 60 39.2531 59.3039 39.2531 58.4452V1.55485C39.2531 0.696107 38.557 0 37.6983 0ZM23.19 37.8981H20.9765C20.1177 37.8981 19.4216 38.5942 19.4216 39.453C19.4216 39.4539 19.4218 39.4548 19.4218 39.4559H18.232C18.232 39.455 18.2322 39.454 18.2322 39.453C18.2322 38.5942 17.536 37.8981 16.6773 37.8981H14.464C13.6052 37.8981 12.9091 38.5942 12.9091 39.453C12.9091 39.4539 12.9093 39.4548 12.9093 39.4559H11.7195C11.7195 39.455 11.7197 39.454 11.7197 39.453C11.7197 38.5942 11.0235 37.8981 10.1648 37.8981H7.95147C7.09273 37.8981 6.39662 38.5942 6.39662 39.453C6.39662 39.4539 6.39678 39.4548 6.39678 39.4559H3.85677V36.0674H27.1032V39.4559H24.7448C24.7448 39.455 24.745 39.454 24.745 39.453C24.7448 38.5942 24.0487 37.8981 23.19 37.8981ZM27.103 12.241V17.0735H23.2016V15.1054C23.2016 14.2466 22.5055 13.5505 21.6468 13.5505C20.788 13.5505 20.0919 14.2466 20.0919 15.1054V17.0734H18.6364V15.1054C18.6364 14.2466 17.9403 13.5505 17.0816 13.5505C16.2228 13.5505 15.5267 14.2466 15.5267 15.1054V17.0734H14.0712V15.1054C14.0712 14.2466 13.3751 13.5505 12.5164 13.5505C11.6576 13.5505 10.9615 14.2466 10.9615 15.1054V17.0734H9.50617V15.1054C9.50617 14.2466 8.81006 13.5505 7.95132 13.5505C7.09257 13.5505 6.39647 14.2466 6.39647 15.1054V17.0734H3.85677V12.2409L27.103 12.241ZM21.6469 28.6351C20.7882 28.6351 20.0921 29.3312 20.0921 30.1899V32.8125C20.0921 32.8615 20.095 32.9098 20.0994 32.9579H19.5521C19.5566 32.91 19.5594 32.8616 19.5594 32.8125C19.5594 31.9538 18.8633 31.2576 18.0045 31.2576H16.1588C15.3 31.2576 14.6039 31.9538 14.6039 32.8125C14.6039 32.8615 14.6069 32.9098 14.6112 32.9579H14.0641C14.0686 32.91 14.0714 32.8616 14.0714 32.8125V30.1899C14.0714 29.3312 13.3753 28.6351 12.5165 28.6351C11.6578 28.6351 10.9617 29.3312 10.9617 30.1899V32.8125C10.9617 32.8615 10.9646 32.9098 10.969 32.9579H9.49886C9.50337 32.91 9.50617 32.8616 9.50617 32.8125V30.1899C9.50617 29.3312 8.81006 28.6351 7.95132 28.6351C7.09257 28.6351 6.39647 29.3312 6.39647 30.1899V32.8125C6.39647 32.8615 6.39942 32.9098 6.40377 32.9579H3.85677V28.1254H27.1032V32.9579H23.1945C23.199 32.91 23.2018 32.8616 23.2018 32.8125V30.1899C23.2018 29.3312 22.5057 28.6351 21.6469 28.6351ZM27.103 20.1831V25.0155H23.2016V22.6477C23.2016 21.7889 22.5055 21.0928 21.6468 21.0928C20.788 21.0928 20.0919 21.7889 20.0919 22.6477V25.0155H18.6364V22.6477C18.6364 21.7889 17.9403 21.0928 17.0816 21.0928C16.2228 21.0928 15.5267 21.7889 15.5267 22.6477V25.0155H13.3847C13.263 24.2782 12.6243 23.7154 11.8526 23.7154H7.95147C7.17965 23.7154 6.54107 24.2782 6.41932 25.0155H3.85693V20.1831H27.103ZM27.103 3.1097V9.13133H22.4219C22.4962 8.94988 22.5377 8.75148 22.5377 8.54329C22.5377 7.68454 21.8416 6.98843 20.9828 6.98843H17.0816C16.2228 6.98843 15.5267 7.68454 15.5267 8.54329C15.5267 8.75148 15.5684 8.94988 15.6425 9.13133H13.2913C13.3656 8.94988 13.4071 8.75148 13.4071 8.54329C13.4071 7.68454 12.711 6.98843 11.8523 6.98843H7.95116C7.09242 6.98843 6.39631 7.68454 6.39631 8.54329C6.39631 8.75148 6.43798 8.94988 6.51215 9.13133H3.85646V3.1097H27.103ZM36.1434 56.8903H3.85677V42.5656H28.6581C29.5168 42.5656 30.2129 41.8695 30.2129 41.0108V3.1097H36.1436V56.8903H36.1434Z" fill="#58B7A3"/>
    <path d="M27.4837 45.7005H12.5165C11.6578 45.7005 10.9617 46.3966 10.9617 47.2554V51.9213C10.9617 52.7801 11.6578 53.4762 12.5165 53.4762H27.4837C28.3424 53.4762 29.0385 52.7801 29.0385 51.9213V47.2554C29.0385 46.3966 28.3424 45.7005 27.4837 45.7005ZM25.9288 50.3666H14.0714V48.8104H25.9288V50.3666Z" fill="#58B7A3"/>
    <path d="M33.3095 18.5358C34.1682 18.5358 34.8643 17.8397 34.8643 16.981V15.0304C34.8643 14.1717 34.1682 13.4756 33.3095 13.4756C32.4507 13.4756 31.7546 14.1717 31.7546 15.0304V16.981C31.7546 17.8397 32.4507 18.5358 33.3095 18.5358Z" fill="#58B7A3"/>
    <path d="M33.3095 24.1274C34.1682 24.1274 34.8643 23.4313 34.8643 22.5726V20.622C34.8643 19.7632 34.1682 19.0671 33.3095 19.0671C32.4507 19.0671 31.7546 19.7632 31.7546 20.622V22.5726C31.7546 23.4313 32.4507 24.1274 33.3095 24.1274Z" fill="#58B7A3"/>
</svg>
